ply
format ascii 1.0
comment Created by Blender3D 249 - www.blender.org, source file: crates.blend
element vertex 531
property float x
property float y
property float z
property float nx
property float ny
property float nz
property float s
property float t
element face 236
property list uchar int vertex_indices
end_header
3.915636 -0.559026 1.252984 0.995010 -0.099777 -0.000002 1.000000 1.000000 
3.915826 -0.557134 1.303477 0.995010 -0.099777 -0.000002 1.000000 0.500000 
3.758512 -2.125920 0.773945 0.995010 -0.099777 -0.000002 0.000000 0.500000 
3.763178 -2.079391 0.762056 0.995010 -0.099775 -0.000006 0.000000 1.000000 
3.915636 -0.559026 1.252984 0.995010 -0.099775 -0.000006 1.000000 1.000000 
3.758512 -2.125920 0.773945 0.995010 -0.099775 -0.000006 0.000000 0.500000 
3.915826 -0.557134 1.303477 0.995009 -0.099781 0.000015 1.000000 0.500000 
3.910541 -0.609833 1.310447 0.995009 -0.099781 0.000015 1.000000 0.000000 
3.757690 -2.134117 0.816395 0.995009 -0.099781 0.000015 0.000000 0.000000 
3.757690 -2.134117 0.816395 0.995010 -0.099776 -0.000003 0.000000 0.000000 
3.758512 -2.125920 0.773945 0.995010 -0.099776 -0.000003 0.000000 0.500000 
3.915826 -0.557134 1.303477 0.995010 -0.099776 -0.000003 1.000000 0.500000 
3.075413 -0.474771 1.252984 -0.995010 0.099778 -0.000003 0.000000 1.000000 
2.922954 -1.995136 0.762056 -0.995010 0.099778 -0.000003 1.000000 1.000000 
2.918288 -2.041664 0.773945 -0.995010 0.099778 -0.000003 1.000000 0.500000 
3.075602 -0.472879 1.303477 -0.995010 0.099778 -0.000003 0.000000 0.500000 
3.075602 -0.472879 1.303477 -0.995010 0.099778 -0.000002 0.000000 0.500000 
2.918288 -2.041664 0.773945 -0.995010 0.099778 -0.000002 1.000000 0.500000 
2.917466 -2.049861 0.816395 -0.995010 0.099778 -0.000002 1.000000 0.000000 
2.917466 -2.049861 0.816395 -0.995010 0.099772 0.000016 1.000000 0.000000 
3.070318 -0.525577 1.310447 -0.995010 0.099772 0.000016 0.000000 0.000000 
3.075602 -0.472879 1.303477 -0.995010 0.099772 0.000016 0.000000 0.500000 
3.915636 -0.559026 1.252984 0.030521 0.304363 -0.952067 0.000000 1.000000 
3.763178 -2.079391 0.762056 0.030521 0.304363 -0.952067 1.000000 1.000000 
2.922954 -1.995136 0.762056 0.030521 0.304363 -0.952067 1.000000 0.000000 
2.922954 -1.995136 0.762056 0.030521 0.304363 -0.952067 1.000000 0.000000 
3.075413 -0.474771 1.252984 0.030521 0.304363 -0.952067 0.000000 0.000000 
3.915636 -0.559026 1.252984 0.030521 0.304363 -0.952067 0.000000 1.000000 
3.763178 -2.079391 0.762056 -0.024586 -0.245177 -0.969166 0.000000 1.000000 
3.758512 -2.125920 0.773945 -0.024586 -0.245177 -0.969166 0.500000 1.000000 
2.918288 -2.041664 0.773945 -0.024586 -0.245177 -0.969166 0.500000 0.000000 
2.918288 -2.041664 0.773945 -0.024586 -0.245178 -0.969166 0.500000 0.000000 
2.922954 -1.995136 0.762056 -0.024586 -0.245178 -0.969166 0.000000 0.000000 
3.763178 -2.079391 0.762056 -0.024586 -0.245178 -0.969166 0.000000 1.000000 
3.758512 -2.125920 0.773945 -0.097950 -0.976786 -0.190515 0.500000 1.000000 
3.757690 -2.134117 0.816395 -0.097950 -0.976786 -0.190515 1.000000 1.000000 
2.917466 -2.049861 0.816395 -0.097950 -0.976786 -0.190515 1.000000 0.000000 
2.917466 -2.049861 0.816395 -0.097950 -0.976785 -0.190515 1.000000 0.000000 
2.918288 -2.041664 0.773945 -0.097950 -0.976785 -0.190515 0.500000 0.000000 
3.758512 -2.125920 0.773945 -0.097950 -0.976785 -0.190515 0.500000 1.000000 
3.757690 -2.134117 0.816395 -0.030625 -0.305404 0.951730 0.000000 1.000000 
3.910541 -0.609833 1.310447 -0.030625 -0.305404 0.951730 1.000000 1.000000 
3.070318 -0.525577 1.310447 -0.030625 -0.305404 0.951730 1.000000 0.000000 
3.070318 -0.525577 1.310447 -0.030625 -0.305404 0.951730 1.000000 0.000000 
2.917466 -2.049861 0.816395 -0.030625 -0.305404 0.951730 0.000000 0.000000 
3.757690 -2.134117 0.816395 -0.030625 -0.305404 0.951730 0.000000 1.000000 
3.910541 -0.609833 1.310447 0.013019 0.129829 0.991451 0.000000 1.000000 
3.915826 -0.557134 1.303477 0.013019 0.129829 0.991451 0.500000 1.000000 
3.075602 -0.472879 1.303477 0.013019 0.129829 0.991451 0.500000 0.000000 
3.075602 -0.472879 1.303477 0.013019 0.129829 0.991451 0.500000 0.000000 
3.070318 -0.525577 1.310447 0.013019 0.129829 0.991451 0.000000 0.000000 
3.910541 -0.609833 1.310447 0.013019 0.129829 0.991451 0.000000 1.000000 
3.915826 -0.557134 1.303477 0.099706 0.994305 -0.037627 0.500000 1.000000 
3.915636 -0.559026 1.252984 0.099706 0.994305 -0.037627 1.000000 1.000000 
3.075413 -0.474771 1.252984 0.099706 0.994305 -0.037627 1.000000 0.000000 
3.075413 -0.474771 1.252984 0.099706 0.994305 -0.037627 1.000000 0.000000 
3.075602 -0.472879 1.303477 0.099706 0.994305 -0.037627 0.500000 0.000000 
3.915826 -0.557134 1.303477 0.099706 0.994305 -0.037627 0.500000 1.000000 
3.139545 -0.429532 1.254860 0.099776 0.995010 -0.000001 1.000000 1.000000 
3.137653 -0.429342 1.305353 0.099776 0.995010 -0.000001 1.000000 0.500000 
3.841703 -0.499942 0.772361 0.099776 0.995010 -0.000001 0.000000 0.500000 
3.841703 -0.499942 0.772361 0.099777 0.995010 0.000000 0.000000 0.500000 
3.795175 -0.495277 0.760472 0.099777 0.995010 0.000000 0.000000 1.000000 
3.139545 -0.429532 1.254860 0.099777 0.995010 0.000000 1.000000 1.000000 
3.137653 -0.429342 1.305353 0.099778 0.995010 0.000002 1.000000 0.500000 
3.190352 -0.434627 1.312323 0.099778 0.995010 0.000002 1.000000 0.000000 
3.849900 -0.500764 0.814811 0.099778 0.995010 0.000002 0.000000 0.000000 
3.849900 -0.500764 0.814811 0.099776 0.995010 -0.000001 0.000000 0.000000 
2.971909 -2.101255 1.254860 -0.099778 -0.995010 -0.000002 0.000000 1.000000 
3.627538 -2.167000 0.760472 -0.099778 -0.995010 -0.000002 1.000000 1.000000 
3.674067 -2.171666 0.772361 -0.099778 -0.995010 -0.000002 1.000000 0.500000 
3.674067 -2.171666 0.772361 -0.099776 -0.995010 0.000002 1.000000 0.500000 
2.970017 -2.101066 1.305353 -0.099776 -0.995010 0.000002 0.000000 0.500000 
2.971909 -2.101255 1.254860 -0.099776 -0.995010 0.000002 0.000000 1.000000 
2.970017 -2.101066 1.305353 -0.099775 -0.995010 0.000002 0.000000 0.500000 
3.674067 -2.171666 0.772361 -0.099775 -0.995010 0.000002 1.000000 0.500000 
3.682264 -2.172488 0.814811 -0.099775 -0.995010 0.000002 1.000000 0.000000 
3.682264 -2.172488 0.814811 -0.099775 -0.995010 0.000003 1.000000 0.000000 
3.022716 -2.106350 1.312323 -0.099775 -0.995010 0.000003 0.000000 0.000000 
2.970017 -2.101066 1.305353 -0.099775 -0.995010 0.000003 0.000000 0.500000 
3.139545 -0.429532 1.254860 -0.597160 0.059882 -0.799884 0.000000 1.000000 
3.795175 -0.495277 0.760472 -0.597160 0.059882 -0.799884 1.000000 1.000000 
3.627538 -2.167000 0.760472 -0.597160 0.059882 -0.799884 1.000000 0.000000 
3.627538 -2.167000 0.760472 -0.597160 0.059882 -0.799884 1.000000 0.000000 
2.971909 -2.101255 1.254860 -0.597160 0.059882 -0.799884 0.000000 0.000000 
3.139545 -0.429532 1.254860 -0.597160 0.059882 -0.799884 0.000000 1.000000 
3.795175 -0.495277 0.760472 0.245176 -0.024586 -0.969167 0.000000 1.000000 
3.841703 -0.499942 0.772361 0.245176 -0.024586 -0.969167 0.500000 1.000000 
3.674067 -2.171666 0.772361 0.245176 -0.024586 -0.969167 0.500000 0.000000 
3.674067 -2.171666 0.772361 0.245177 -0.024586 -0.969166 0.500000 0.000000 
3.627538 -2.167000 0.760472 0.245177 -0.024586 -0.969166 0.000000 0.000000 
3.795175 -0.495277 0.760472 0.245177 -0.024586 -0.969166 0.000000 1.000000 
3.841703 -0.499942 0.772361 0.976788 -0.097950 -0.190504 0.500000 1.000000 
3.849900 -0.500764 0.814811 0.976788 -0.097950 -0.190504 1.000000 1.000000 
3.682264 -2.172488 0.814811 0.976788 -0.097950 -0.190504 1.000000 0.000000 
3.674067 -2.171666 0.772361 0.976788 -0.097950 -0.190504 0.500000 0.000000 
3.841703 -0.499942 0.772361 0.976788 -0.097950 -0.190504 0.500000 1.000000 
3.849900 -0.500764 0.814811 0.597290 -0.059895 0.799785 0.000000 1.000000 
3.190352 -0.434627 1.312323 0.597290 -0.059895 0.799785 1.000000 1.000000 
3.022716 -2.106350 1.312323 0.597290 -0.059895 0.799785 1.000000 0.000000 
3.022716 -2.106350 1.312323 0.597290 -0.059895 0.799785 1.000000 0.000000 
3.682264 -2.172488 0.814811 0.597290 -0.059895 0.799785 0.000000 0.000000 
3.849900 -0.500764 0.814811 0.597290 -0.059895 0.799785 0.000000 1.000000 
3.190352 -0.434627 1.312323 -0.129829 0.013019 0.991451 0.000000 1.000000 
3.137653 -0.429342 1.305353 -0.129829 0.013019 0.991451 0.500000 1.000000 
2.970017 -2.101066 1.305353 -0.129829 0.013019 0.991451 0.500000 0.000000 
2.970017 -2.101066 1.305353 -0.129829 0.013019 0.991451 0.500000 0.000000 
3.022716 -2.106350 1.312323 -0.129829 0.013019 0.991451 0.000000 0.000000 
3.190352 -0.434627 1.312323 -0.129829 0.013019 0.991451 0.000000 1.000000 
3.137653 -0.429342 1.305353 -0.994305 0.099706 -0.037624 0.500000 1.000000 
3.139545 -0.429532 1.254860 -0.994305 0.099706 -0.037624 1.000000 1.000000 
2.971909 -2.101255 1.254860 -0.994305 0.099706 -0.037624 1.000000 0.000000 
2.971909 -2.101255 1.254860 -0.994305 0.099706 -0.037624 1.000000 0.000000 
2.970017 -2.101066 1.305353 -0.994305 0.099706 -0.037624 0.500000 0.000000 
3.137653 -0.429342 1.305353 -0.994305 0.099706 -0.037624 0.500000 1.000000 
3.913397 -0.609694 0.758512 0.995010 -0.099778 -0.000003 1.000000 1.000000 
3.918281 -0.560992 0.771059 0.995010 -0.099778 -0.000003 1.000000 0.500000 
3.761954 -2.119936 1.287617 0.995010 -0.099778 -0.000003 0.000000 0.500000 
3.761954 -2.119936 1.287617 0.995010 -0.099777 0.000001 0.000000 0.500000 
3.762145 -2.118034 1.239406 0.995010 -0.099777 0.000001 0.000000 1.000000 
3.913397 -0.609694 0.758512 0.995010 -0.099777 0.000001 1.000000 1.000000 
3.918281 -0.560992 0.771059 0.995010 -0.099775 0.000006 1.000000 0.500000 
3.917444 -0.569341 0.823815 0.995010 -0.099775 0.000006 1.000000 0.000000 
3.765780 -2.081777 1.307596 0.995010 -0.099775 0.000006 0.000000 0.000000 
3.765780 -2.081777 1.307596 0.995010 -0.099777 0.000001 0.000000 0.000000 
3.918281 -0.560992 0.771059 0.995010 -0.099777 0.000001 1.000000 0.500000 
3.065752 -0.524694 0.758512 -0.995010 0.099777 -0.000001 0.000000 1.000000 
2.914499 -2.033034 1.239406 -0.995010 0.099777 -0.000001 1.000000 1.000000 
2.914309 -2.034936 1.287617 -0.995010 0.099777 -0.000001 1.000000 0.500000 
2.914309 -2.034936 1.287617 -0.995010 0.099775 -0.000006 1.000000 0.500000 
3.070635 -0.475992 0.771059 -0.995010 0.099775 -0.000006 0.000000 0.500000 
3.065752 -0.524694 0.758512 -0.995010 0.099775 -0.000006 0.000000 1.000000 
3.070635 -0.475992 0.771059 -0.995010 0.099777 -0.000001 0.000000 0.500000 
2.918135 -1.996778 1.307596 -0.995010 0.099777 -0.000001 1.000000 0.000000 
2.918135 -1.996778 1.307596 -0.995010 0.099778 0.000003 1.000000 0.000000 
3.069798 -0.484342 0.823815 -0.995010 0.099778 0.000003 0.000000 0.000000 
3.070635 -0.475992 0.771059 -0.995010 0.099778 0.000003 0.000000 0.500000 
3.913397 -0.609694 0.758512 -0.030171 -0.300873 -0.953187 0.000000 1.000000 
3.762145 -2.118034 1.239406 -0.030171 -0.300873 -0.953187 1.000000 1.000000 
2.914499 -2.033034 1.239406 -0.030171 -0.300873 -0.953187 1.000000 0.000000 
2.914499 -2.033034 1.239406 -0.030171 -0.300873 -0.953187 1.000000 0.000000 
3.065752 -0.524694 0.758512 -0.030171 -0.300873 -0.953187 0.000000 0.000000 
3.913397 -0.609694 0.758512 -0.030171 -0.300873 -0.953187 0.000000 1.000000 
3.762145 -2.118034 1.239406 -0.099699 -0.994229 -0.039605 0.000000 1.000000 
3.761954 -2.119936 1.287617 -0.099699 -0.994229 -0.039605 0.500000 1.000000 
2.914309 -2.034936 1.287617 -0.099699 -0.994229 -0.039605 0.500000 0.000000 
2.914309 -2.034936 1.287617 -0.099699 -0.994229 -0.039610 0.500000 0.000000 
2.914499 -2.033034 1.239406 -0.099699 -0.994229 -0.039610 0.000000 0.000000 
3.762145 -2.118034 1.239406 -0.099699 -0.994229 -0.039610 0.000000 1.000000 
3.761954 -2.119936 1.287617 -0.046099 -0.459714 0.886870 0.500000 1.000000 
3.765780 -2.081777 1.307596 -0.046099 -0.459714 0.886870 1.000000 1.000000 
2.918135 -1.996778 1.307596 -0.046099 -0.459714 0.886870 1.000000 0.000000 
2.914309 -2.034936 1.287617 -0.046099 -0.459714 0.886870 0.500000 0.000000 
3.761954 -2.119936 1.287617 -0.046099 -0.459714 0.886870 0.500000 1.000000 
3.765780 -2.081777 1.307596 0.030261 0.301768 0.952901 0.000000 1.000000 
3.917444 -0.569341 0.823815 0.030261 0.301768 0.952901 1.000000 1.000000 
3.069798 -0.484342 0.823815 0.030261 0.301768 0.952901 1.000000 0.000000 
3.069798 -0.484342 0.823815 0.030261 0.301768 0.952901 1.000000 0.000000 
2.918135 -1.996778 1.307596 0.030261 0.301768 0.952901 0.000000 0.000000 
3.765780 -2.081777 1.307596 0.030261 0.301768 0.952901 0.000000 1.000000 
3.917444 -0.569341 0.823815 0.098538 0.982657 0.157083 0.000000 1.000000 
3.918281 -0.560992 0.771059 0.098538 0.982657 0.157083 0.500000 1.000000 
3.070635 -0.475992 0.771059 0.098538 0.982657 0.157083 0.500000 0.000000 
3.070635 -0.475992 0.771059 0.098538 0.982657 0.157083 0.500000 0.000000 
3.069798 -0.484342 0.823815 0.098538 0.982657 0.157083 0.000000 0.000000 
3.917444 -0.569341 0.823815 0.098538 0.982657 0.157083 0.000000 1.000000 
3.918281 -0.560992 0.771059 0.024777 0.247087 -0.968676 0.500000 1.000000 
3.913397 -0.609694 0.758512 0.024777 0.247087 -0.968676 1.000000 1.000000 
3.065752 -0.524694 0.758512 0.024777 0.247087 -0.968676 1.000000 0.000000 
3.065752 -0.524694 0.758512 0.024777 0.247087 -0.968677 1.000000 0.000000 
3.070635 -0.475992 0.771059 0.024777 0.247087 -0.968677 0.500000 0.000000 
3.918281 -0.560992 0.771059 0.024777 0.247087 -0.968677 0.500000 1.000000 
3.198552 -0.443882 0.777908 0.099776 0.995010 0.000001 1.000000 1.000000 
3.144974 -0.438509 0.772627 0.099776 0.995010 0.000001 1.000000 0.500000 
3.836782 -0.507882 1.291643 0.099776 0.995010 0.000001 0.000000 0.500000 
3.836782 -0.507882 1.291643 0.099777 0.995010 -0.000000 0.000000 0.500000 
3.854986 -0.509707 1.246996 0.099777 0.995010 -0.000000 0.000000 1.000000 
3.198552 -0.443882 0.777908 0.099777 0.995010 -0.000000 1.000000 1.000000 
3.144974 -0.438509 0.772627 0.099777 0.995010 0.000001 1.000000 0.500000 
3.134848 -0.437494 0.820456 0.099777 0.995010 0.000001 1.000000 0.000000 
3.793814 -0.503573 1.293880 0.099777 0.995010 0.000001 0.000000 0.000000 
3.793814 -0.503573 1.293880 0.099777 0.995010 -0.000000 0.000000 0.000000 
3.144974 -0.438509 0.772627 0.099777 0.995010 -0.000000 1.000000 0.500000 
3.032154 -2.103260 0.777908 -0.099776 -0.995010 -0.000002 0.000000 1.000000 
3.688588 -2.169086 1.246996 -0.099776 -0.995010 -0.000002 1.000000 1.000000 
3.670384 -2.167260 1.291643 -0.099776 -0.995010 -0.000002 1.000000 0.500000 
3.670384 -2.167260 1.291643 -0.099778 -0.995010 0.000002 1.000000 0.500000 
2.978575 -2.097887 0.772627 -0.099778 -0.995010 0.000002 0.000000 0.500000 
3.032154 -2.103260 0.777908 -0.099778 -0.995010 0.000002 0.000000 1.000000 
2.978575 -2.097887 0.772627 -0.099777 -0.995010 -0.000001 0.000000 0.500000 
3.670384 -2.167260 1.291643 -0.099777 -0.995010 -0.000001 1.000000 0.500000 
3.627416 -2.162951 1.293880 -0.099777 -0.995010 -0.000001 1.000000 0.000000 
3.627416 -2.162951 1.293880 -0.099775 -0.995010 -0.000003 1.000000 0.000000 
2.968450 -2.096872 0.820456 -0.099775 -0.995010 -0.000003 0.000000 0.000000 
2.978575 -2.097887 0.772627 -0.099775 -0.995010 -0.000003 0.000000 0.500000 
3.198552 -0.443882 0.777908 0.576590 -0.057819 -0.814985 0.000000 1.000000 
3.854986 -0.509707 1.246996 0.576590 -0.057819 -0.814985 1.000000 1.000000 
3.688588 -2.169086 1.246996 0.576590 -0.057819 -0.814985 1.000000 0.000000 
3.688588 -2.169086 1.246996 0.576590 -0.057819 -0.814985 1.000000 0.000000 
3.032154 -2.103260 0.777908 0.576590 -0.057819 -0.814985 0.000000 0.000000 
3.198552 -0.443882 0.777908 0.576590 -0.057819 -0.814985 0.000000 1.000000 
3.854986 -0.509707 1.246996 0.920706 -0.092326 0.379179 0.000000 1.000000 
3.836782 -0.507882 1.291643 0.920706 -0.092326 0.379179 0.500000 1.000000 
3.670384 -2.167260 1.291643 0.920706 -0.092326 0.379179 0.500000 0.000000 
3.670384 -2.167260 1.291643 0.920708 -0.092326 0.379174 0.500000 0.000000 
3.688588 -2.169086 1.246996 0.920708 -0.092326 0.379174 0.000000 0.000000 
3.854986 -0.509707 1.246996 0.920708 -0.092326 0.379174 0.000000 1.000000 
3.836782 -0.507882 1.291643 0.051468 -0.005161 0.998661 0.500000 1.000000 
3.793814 -0.503573 1.293880 0.051468 -0.005161 0.998661 1.000000 1.000000 
3.627416 -2.162951 1.293880 0.051468 -0.005161 0.998661 1.000000 0.000000 
3.670384 -2.167260 1.291643 0.051468 -0.005161 0.998661 0.500000 0.000000 
3.836782 -0.507882 1.291643 0.051468 -0.005161 0.998661 0.500000 1.000000 
3.793814 -0.503573 1.293880 -0.578640 0.058024 0.813517 0.000000 1.000000 
3.134848 -0.437494 0.820456 -0.578640 0.058024 0.813517 1.000000 1.000000 
2.968450 -2.096872 0.820456 -0.578640 0.058024 0.813517 1.000000 0.000000 
2.968450 -2.096872 0.820456 -0.578639 0.058024 0.813517 1.000000 0.000000 
3.627416 -2.162951 1.293880 -0.578639 0.058024 0.813517 0.000000 0.000000 
3.793814 -0.503573 1.293880 -0.578639 0.058024 0.813517 0.000000 1.000000 
3.134848 -0.437494 0.820456 -0.973224 0.097592 -0.208113 0.000000 1.000000 
3.144974 -0.438509 0.772627 -0.973224 0.097592 -0.208113 0.500000 1.000000 
2.978575 -2.097887 0.772627 -0.973224 0.097592 -0.208113 0.500000 0.000000 
2.978575 -2.097887 0.772627 -0.973225 0.097592 -0.208108 0.500000 0.000000 
2.968450 -2.096872 0.820456 -0.973225 0.097592 -0.208108 0.000000 0.000000 
3.134848 -0.437494 0.820456 -0.973225 0.097592 -0.208108 0.000000 1.000000 
3.144974 -0.438509 0.772627 0.097132 -0.009740 -0.995224 0.500000 1.000000 
3.198552 -0.443882 0.777908 0.097132 -0.009740 -0.995224 1.000000 1.000000 
3.032154 -2.103260 0.777908 0.097132 -0.009740 -0.995224 1.000000 0.000000 
3.032154 -2.103260 0.777908 0.097131 -0.009740 -0.995224 1.000000 0.000000 
2.978575 -2.097887 0.772627 0.097131 -0.009740 -0.995224 0.500000 0.000000 
3.144974 -0.438509 0.772627 0.097131 -0.009740 -0.995224 0.500000 1.000000 
3.933984 -0.486175 0.712064 0.995009 -0.099782 0.000000 1.000000 1.000000 
3.933984 -0.486175 0.785006 0.995009 -0.099782 0.000000 1.000000 0.666667 
3.924304 -0.582707 0.785006 0.995009 -0.099782 0.000000 0.666667 0.666667 
3.924304 -0.582707 0.712064 0.995009 -0.099782 0.000000 0.666667 1.000000 
3.924304 -0.582707 0.712064 0.995010 -0.099777 0.000000 0.666667 1.000000 
3.924304 -0.582707 0.785006 0.995010 -0.099777 0.000000 0.666667 0.666667 
3.770949 -2.112011 0.785006 0.995010 -0.099777 0.000000 0.333333 0.666667 
3.770949 -2.112011 0.712064 0.995010 -0.099777 0.000000 0.333333 1.000000 
3.761269 -2.208544 0.785006 0.995010 -0.099777 0.000000 0.000000 0.666667 
3.761269 -2.208544 0.712064 0.995010 -0.099777 0.000000 0.000000 1.000000 
3.933984 -0.486175 0.785006 0.995010 -0.099777 0.000001 1.000000 0.666667 
3.933984 -0.486175 1.283000 0.995010 -0.099777 0.000001 1.000000 0.333333 
3.924304 -0.582707 1.283000 0.995010 -0.099777 0.000001 0.666667 0.333333 
3.924304 -0.582707 1.283000 0.995009 -0.099782 0.000000 0.666667 0.333333 
3.885324 -0.578799 0.785006 0.995010 -0.099777 0.000000 0.666667 0.666667 
3.885324 -0.578799 1.283000 0.995010 -0.099777 0.000000 0.666667 0.333333 
3.731969 -2.108102 1.283000 0.995010 -0.099777 0.000000 0.333333 0.333333 
3.731969 -2.108102 1.283000 0.995010 -0.099777 0.000001 0.333333 0.333333 
3.731970 -2.108102 0.785006 0.995010 -0.099777 0.000001 0.333333 0.666667 
3.885324 -0.578799 0.785006 0.995010 -0.099777 0.000001 0.666667 0.666667 
3.770949 -2.112011 1.283000 0.995010 -0.099777 0.000000 0.333333 0.333333 
3.761269 -2.208544 1.283000 0.995010 -0.099777 0.000000 0.000000 0.333333 
3.933984 -0.486175 1.283000 0.995010 -0.099777 0.000000 1.000000 0.333333 
3.933984 -0.486175 1.355942 0.995010 -0.099777 0.000000 1.000000 0.000000 
3.924304 -0.582707 1.355942 0.995010 -0.099777 0.000000 0.666667 0.000000 
3.924304 -0.582707 1.283000 0.995010 -0.099777 0.000000 0.666667 0.333333 
3.770949 -2.112011 1.355942 0.995010 -0.099777 0.000000 0.333333 0.000000 
3.761269 -2.208544 1.355942 0.995010 -0.099777 0.000000 0.000000 0.000000 
3.056773 -0.398210 0.712064 -0.995010 0.099777 -0.000000 0.000000 1.000000 
3.047093 -0.494743 0.712064 -0.995010 0.099777 -0.000000 0.333333 1.000000 
3.047093 -0.494743 0.785006 -0.995010 0.099777 -0.000000 0.333333 0.666667 
3.056773 -0.398210 0.785006 -0.995010 0.099777 0.000000 0.000000 0.666667 
2.893738 -2.024046 0.712064 -0.995010 0.099777 0.000000 0.666667 1.000000 
2.893738 -2.024046 0.785006 -0.995010 0.099777 0.000000 0.666667 0.666667 
2.884058 -2.120579 0.712064 -0.995010 0.099777 0.000000 1.000000 1.000000 
2.884058 -2.120579 0.785006 -0.995010 0.099777 0.000000 1.000000 0.666667 
3.047093 -0.494743 1.283000 -0.995010 0.099777 0.000000 0.333333 0.333333 
3.056773 -0.398210 1.283000 -0.995010 0.099777 0.000000 0.000000 0.333333 
3.086072 -0.498652 0.785006 -0.995010 0.099777 0.000000 0.333333 0.666667 
2.932718 -2.027955 0.785006 -0.995010 0.099777 0.000000 0.666667 0.666667 
2.932718 -2.027955 1.283000 -0.995010 0.099777 0.000000 0.666667 0.333333 
3.086072 -0.498652 1.283000 -0.995010 0.099777 0.000000 0.333333 0.333333 
2.884058 -2.120579 1.283000 -0.995010 0.099777 0.000000 1.000000 0.333333 
2.893738 -2.024046 1.283000 -0.995010 0.099777 0.000000 0.666667 0.333333 
3.047093 -0.494743 1.355942 -0.995010 0.099777 0.000000 0.333333 0.000000 
3.056773 -0.398210 1.355942 -0.995010 0.099777 0.000000 0.000000 0.000000 
2.893738 -2.024046 1.355942 -0.995010 0.099777 0.000000 0.666667 0.000000 
2.884058 -2.120579 1.355942 -0.995010 0.099777 0.000000 1.000000 0.000000 
3.933984 -0.486175 0.712064 0.000000 0.000000 -1.000000 0.000000 1.000000 
3.924304 -0.582707 0.712064 0.000000 0.000000 -1.000000 0.333333 1.000000 
3.824221 -0.572671 0.712064 0.000000 0.000000 -1.000000 0.333333 0.666667 
3.833901 -0.476139 0.712064 -0.000000 0.000000 -1.000000 0.000000 0.666667 
3.933984 -0.486175 0.712064 -0.000000 0.000000 -1.000000 0.000000 1.000000 
3.924304 -0.582707 0.712064 0.000000 0.000000 -1.000000 0.333333 1.000000 
3.770949 -2.112011 0.712064 0.000000 0.000000 -1.000000 0.666667 1.000000 
3.670866 -2.101975 0.712064 0.000000 0.000000 -1.000000 0.666667 0.666667 
3.924304 -0.582707 0.712064 -0.000000 0.000000 -1.000000 0.333333 1.000000 
3.770949 -2.112011 0.712064 0.000000 0.000000 -1.000000 0.666667 1.000000 
3.761269 -2.208544 0.712064 0.000000 0.000000 -1.000000 1.000000 1.000000 
3.661186 -2.198508 0.712064 0.000000 0.000000 -1.000000 1.000000 0.666667 
3.770949 -2.112011 0.712064 -0.000000 0.000000 -1.000000 0.666667 1.000000 
3.147176 -0.504779 0.712064 0.000000 0.000000 -1.000000 0.333333 0.333333 
3.156856 -0.408246 0.712064 -0.000000 0.000000 -1.000000 0.000000 0.333333 
3.824221 -0.572671 0.751239 0.000000 -0.000000 -1.000000 0.333333 0.666667 
3.670866 -2.101975 0.751239 0.000000 -0.000000 -1.000000 0.666667 0.666667 
2.993822 -2.034083 0.751239 0.000000 -0.000000 -1.000000 0.666667 0.333333 
3.147176 -0.504779 0.751239 0.000000 -0.000000 -1.000000 0.333333 0.333333 
2.984142 -2.130615 0.712064 0.000000 0.000000 -1.000000 1.000000 0.333333 
2.993822 -2.034083 0.712064 -0.000000 0.000000 -1.000000 0.666667 0.333333 
3.047093 -0.494743 0.712064 0.000000 0.000000 -1.000000 0.333333 0.000000 
3.047093 -0.494743 0.712064 -0.000000 0.000000 -1.000000 0.333333 0.000000 
3.056773 -0.398210 0.712064 -0.000000 0.000000 -1.000000 0.000000 0.000000 
2.893738 -2.024046 0.712064 0.000000 0.000000 -1.000000 0.666667 0.000000 
2.893738 -2.024046 0.712064 -0.000000 0.000000 -1.000000 0.666667 0.000000 
3.047093 -0.494743 0.712064 -0.000000 0.000000 -1.000000 0.333333 0.000000 
2.884058 -2.120579 0.712064 0.000000 0.000000 -1.000000 1.000000 0.000000 
2.884058 -2.120579 0.712064 -0.000000 0.000000 -1.000000 1.000000 0.000000 
2.893738 -2.024046 0.712064 -0.000000 0.000000 -1.000000 0.666667 0.000000 
3.761269 -2.208544 0.712064 -0.099778 -0.995010 -0.000000 0.000000 1.000000 
3.761269 -2.208544 0.785006 -0.099778 -0.995010 -0.000000 0.333333 1.000000 
3.661186 -2.198508 0.785006 -0.099778 -0.995010 -0.000000 0.333333 0.666667 
3.661186 -2.198508 0.712064 -0.099778 -0.995010 0.000000 0.000000 0.666667 
3.761269 -2.208544 0.785006 -0.099778 -0.995010 -0.000000 0.333333 1.000000 
3.761269 -2.208544 1.283000 -0.099778 -0.995010 -0.000000 0.666667 1.000000 
3.661186 -2.198508 1.283000 -0.099778 -0.995010 -0.000000 0.666667 0.666667 
3.761269 -2.208544 0.785006 -0.099778 -0.995010 0.000000 0.333333 1.000000 
3.761269 -2.208544 1.283000 -0.099778 -0.995010 -0.000000 0.666667 1.000000 
3.761269 -2.208544 1.355942 -0.099778 -0.995010 -0.000000 1.000000 1.000000 
3.661186 -2.198508 1.355942 -0.099778 -0.995010 -0.000000 1.000000 0.666667 
3.761269 -2.208544 1.283000 -0.099778 -0.995010 0.000000 0.666667 1.000000 
3.661186 -2.198508 0.712064 -0.099777 -0.995010 -0.000000 0.000000 0.666667 
3.661186 -2.198508 0.785006 -0.099777 -0.995010 -0.000000 0.333333 0.666667 
2.984142 -2.130615 0.785006 -0.099777 -0.995010 -0.000000 0.333333 0.333333 
2.984142 -2.130615 0.712064 -0.099777 -0.995010 0.000000 0.000000 0.333333 
3.661186 -2.198508 0.712064 -0.099777 -0.995010 0.000000 0.000000 0.666667 
3.665095 -2.159528 0.785006 -0.099777 -0.995010 -0.000000 0.333333 0.666667 
3.665095 -2.159528 1.283000 -0.099777 -0.995010 -0.000000 0.666667 0.666667 
2.988050 -2.091636 1.283000 -0.099777 -0.995010 -0.000000 0.666667 0.333333 
2.988050 -2.091636 0.785006 -0.099777 -0.995010 0.000000 0.333333 0.333333 
3.661186 -2.198508 1.283000 -0.099777 -0.995010 -0.000000 0.666667 0.666667 
3.661186 -2.198508 1.355942 -0.099777 -0.995010 -0.000000 1.000000 0.666667 
2.984141 -2.130615 1.355942 -0.099777 -0.995010 -0.000000 1.000000 0.333333 
2.984141 -2.130615 1.283000 -0.099777 -0.995010 0.000000 0.666667 0.333333 
2.984142 -2.130615 0.712064 -0.099776 -0.995010 -0.000000 0.000000 0.333333 
2.984142 -2.130615 0.785006 -0.099776 -0.995010 -0.000000 0.333333 0.333333 
2.884058 -2.120579 0.785006 -0.099776 -0.995010 -0.000000 0.333333 0.000000 
2.884058 -2.120579 0.785006 -0.099776 -0.995010 0.000000 0.333333 0.000000 
2.884058 -2.120579 0.712064 -0.099776 -0.995010 0.000000 0.000000 0.000000 
2.984142 -2.130615 0.712064 -0.099776 -0.995010 0.000000 0.000000 0.333333 
2.984141 -2.130615 1.283000 -0.099776 -0.995010 -0.000000 0.666667 0.333333 
2.884058 -2.120579 1.283000 -0.099776 -0.995010 -0.000000 0.666667 0.000000 
2.884058 -2.120579 1.283000 -0.099776 -0.995010 0.000000 0.666667 0.000000 
2.884058 -2.120579 0.785006 -0.099776 -0.995010 0.000000 0.333333 0.000000 
2.984141 -2.130615 1.355942 -0.099776 -0.995010 -0.000000 1.000000 0.333333 
2.884058 -2.120579 1.355942 -0.099776 -0.995010 -0.000000 1.000000 0.000000 
2.884058 -2.120579 1.283000 -0.099776 -0.995010 0.000000 0.666667 0.000000 
3.761269 -2.208544 1.355942 0.000000 0.000000 1.000000 0.000000 1.000000 
3.770949 -2.112011 1.355942 0.000000 0.000000 1.000000 0.333333 1.000000 
3.670866 -2.101975 1.355942 0.000000 0.000000 1.000000 0.333333 0.666667 
3.661186 -2.198508 1.355942 0.000000 -0.000000 1.000000 0.000000 0.666667 
3.761269 -2.208544 1.355942 0.000000 -0.000000 1.000000 0.000000 1.000000 
3.770949 -2.112011 1.355942 0.000000 0.000000 1.000000 0.333333 1.000000 
3.924304 -0.582707 1.355942 0.000000 0.000000 1.000000 0.666667 1.000000 
3.824221 -0.572671 1.355942 0.000000 0.000000 1.000000 0.666667 0.666667 
3.770949 -2.112011 1.355942 0.000000 -0.000000 1.000000 0.333333 1.000000 
3.924304 -0.582707 1.355942 0.000000 0.000000 1.000000 0.666667 1.000000 
3.933984 -0.486175 1.355942 0.000000 0.000000 1.000000 1.000000 1.000000 
3.833901 -0.476139 1.355942 0.000000 0.000000 1.000000 1.000000 0.666667 
3.924304 -0.582707 1.355942 0.000000 -0.000000 1.000000 0.666667 1.000000 
3.661186 -2.198508 1.355942 0.000000 0.000000 1.000000 0.000000 0.666667 
2.993821 -2.034083 1.355942 0.000000 0.000000 1.000000 0.333333 0.333333 
2.984141 -2.130615 1.355942 0.000000 -0.000000 1.000000 0.000000 0.333333 
3.661186 -2.198508 1.355942 0.000000 -0.000000 1.000000 0.000000 0.666667 
3.670866 -2.101975 1.316767 0.000000 0.000000 1.000000 0.333333 0.666667 
3.824221 -0.572671 1.316767 0.000000 0.000000 1.000000 0.666667 0.666667 
3.147176 -0.504779 1.316767 0.000000 0.000000 1.000000 0.666667 0.333333 
2.993821 -2.034083 1.316767 -0.000000 0.000000 1.000000 0.333333 0.333333 
3.156856 -0.408246 1.355942 0.000000 0.000000 1.000000 1.000000 0.333333 
3.147176 -0.504779 1.355942 0.000000 -0.000000 1.000000 0.666667 0.333333 
2.984141 -2.130615 1.355942 0.000000 0.000000 1.000000 0.000000 0.333333 
2.893738 -2.024046 1.355942 0.000000 0.000000 1.000000 0.333333 0.000000 
2.893738 -2.024046 1.355942 0.000000 -0.000000 1.000000 0.333333 0.000000 
2.884058 -2.120579 1.355942 0.000000 -0.000000 1.000000 0.000000 0.000000 
2.984141 -2.130615 1.355942 0.000000 -0.000000 1.000000 0.000000 0.333333 
3.047093 -0.494743 1.355942 0.000000 0.000000 1.000000 0.666667 0.000000 
3.047093 -0.494743 1.355942 0.000000 -0.000000 1.000000 0.666667 0.000000 
2.893738 -2.024046 1.355942 0.000000 -0.000000 1.000000 0.333333 0.000000 
3.056773 -0.398210 1.355942 0.000000 0.000000 1.000000 1.000000 0.000000 
3.056773 -0.398210 1.355942 0.000000 -0.000000 1.000000 1.000000 0.000000 
3.047093 -0.494743 1.355942 0.000000 -0.000000 1.000000 0.666667 0.000000 
3.933984 -0.486175 1.355942 0.099778 0.995010 -0.000000 0.000000 1.000000 
3.933984 -0.486175 1.283000 0.099778 0.995010 -0.000000 0.333333 1.000000 
3.833901 -0.476139 1.283000 0.099778 0.995010 -0.000000 0.333333 0.666667 
3.833901 -0.476139 1.355942 0.099778 0.995010 0.000000 0.000000 0.666667 
3.933984 -0.486175 1.355942 0.099778 0.995010 0.000000 0.000000 1.000000 
3.933984 -0.486175 1.283000 0.099777 0.995010 0.000000 0.333333 1.000000 
3.933984 -0.486175 0.785006 0.099777 0.995010 0.000000 0.666667 1.000000 
3.833901 -0.476139 0.785006 0.099777 0.995010 0.000000 0.666667 0.666667 
3.833901 -0.476139 0.785006 0.099778 0.995010 0.000000 0.666667 0.666667 
3.933984 -0.486175 1.283000 0.099778 0.995010 0.000000 0.333333 1.000000 
3.933984 -0.486175 0.785006 0.099777 0.995010 -0.000000 0.666667 1.000000 
3.933984 -0.486175 0.712064 0.099777 0.995010 -0.000000 1.000000 1.000000 
3.833901 -0.476139 0.712064 0.099777 0.995010 -0.000000 1.000000 0.666667 
3.833901 -0.476139 0.712064 0.099777 0.995010 0.000000 1.000000 0.666667 
3.933984 -0.486175 0.785006 0.099777 0.995010 0.000000 0.666667 1.000000 
3.833901 -0.476139 1.355942 0.099777 0.995010 -0.000000 0.000000 0.666667 
3.833901 -0.476139 1.283000 0.099777 0.995010 -0.000000 0.333333 0.666667 
3.156856 -0.408246 1.283000 0.099777 0.995010 -0.000000 0.333333 0.333333 
3.156856 -0.408246 1.355942 0.099777 0.995010 0.000000 0.000000 0.333333 
3.833901 -0.476139 1.355942 0.099777 0.995010 0.000000 0.000000 0.666667 
3.829992 -0.515118 1.283000 0.099777 0.995010 0.000000 0.333333 0.666667 
3.829992 -0.515118 0.785006 0.099777 0.995010 0.000000 0.666667 0.666667 
3.152947 -0.447226 0.785005 0.099777 0.995010 0.000000 0.666667 0.333333 
3.152947 -0.447226 1.283000 0.099777 0.995010 0.000000 0.333333 0.333333 
3.833901 -0.476139 0.712064 0.099777 0.995010 -0.000000 1.000000 0.666667 
3.156856 -0.408246 0.712064 0.099777 0.995010 -0.000000 1.000000 0.333333 
3.156856 -0.408246 0.712064 0.099777 0.995010 0.000002 1.000000 0.333333 
3.156856 -0.408246 0.785005 0.099777 0.995010 0.000002 0.666667 0.333333 
3.833901 -0.476139 0.785006 0.099777 0.995010 0.000002 0.666667 0.666667 
3.156856 -0.408246 1.355942 0.099778 0.995010 -0.000000 0.000000 0.333333 
3.156856 -0.408246 1.283000 0.099778 0.995010 -0.000000 0.333333 0.333333 
3.056773 -0.398210 1.283000 0.099778 0.995010 -0.000000 0.333333 0.000000 
3.056773 -0.398210 1.283000 0.099778 0.995010 0.000000 0.333333 0.000000 
3.056773 -0.398210 1.355942 0.099778 0.995010 0.000000 0.000000 0.000000 
3.156856 -0.408246 1.355942 0.099778 0.995010 0.000000 0.000000 0.333333 
3.156856 -0.408246 0.785005 0.099778 0.995010 -0.000000 0.666667 0.333333 
3.056773 -0.398210 0.785006 0.099778 0.995010 -0.000000 0.666667 0.000000 
3.056773 -0.398210 0.785006 0.099778 0.995010 0.000000 0.666667 0.000000 
3.056773 -0.398210 1.283000 0.099778 0.995010 0.000000 0.333333 0.000000 
3.156856 -0.408246 0.712064 0.099777 0.995010 0.000002 1.000000 0.333333 
3.056773 -0.398210 0.712064 0.099777 0.995010 0.000002 1.000000 0.000000 
3.056773 -0.398210 0.712064 0.099778 0.995010 0.000000 1.000000 0.000000 
3.056773 -0.398210 0.785006 0.099778 0.995010 0.000000 0.666667 0.000000 
3.047093 -0.494743 0.785006 0.000000 -0.000000 1.000000 0.333333 0.666667 
2.893738 -2.024046 0.785006 0.000000 -0.000000 1.000000 0.666667 0.666667 
2.932718 -2.027955 0.785006 0.000000 -0.000000 1.000000 0.666667 0.666667 
3.086072 -0.498652 0.785006 0.000000 0.000000 1.000000 0.333333 0.666667 
3.047093 -0.494743 1.283000 -0.099778 -0.995010 0.000000 0.333333 0.333333 
3.047093 -0.494743 0.785006 -0.099778 -0.995010 0.000000 0.333333 0.666667 
3.086072 -0.498652 0.785006 -0.099778 -0.995010 0.000000 0.333333 0.666667 
3.086072 -0.498652 1.283000 -0.099778 -0.995010 -0.000000 0.333333 0.333333 
2.893738 -2.024046 0.785006 0.099773 0.995010 0.000000 0.666667 0.666667 
2.893738 -2.024046 1.283000 0.099773 0.995010 0.000000 0.666667 0.333333 
2.932718 -2.027955 1.283000 0.099773 0.995010 0.000000 0.666667 0.333333 
2.932718 -2.027955 0.785006 0.099773 0.995010 -0.000000 0.666667 0.666667 
2.893738 -2.024046 1.283000 -0.000000 0.000000 -1.000000 0.666667 0.333333 
3.047093 -0.494743 1.283000 -0.000000 0.000000 -1.000000 0.333333 0.333333 
3.086072 -0.498652 1.283000 -0.000000 0.000000 -1.000000 0.333333 0.333333 
2.932718 -2.027955 1.283000 0.000000 0.000000 -1.000000 0.666667 0.333333 
3.670866 -2.101975 1.355942 -0.995010 0.099777 0.000000 0.333333 0.666667 
3.824221 -0.572671 1.355942 -0.995010 0.099777 0.000000 0.666667 0.666667 
3.824221 -0.572671 1.316767 -0.995010 0.099777 0.000000 0.666667 0.666667 
3.670866 -2.101975 1.316767 -0.995010 0.099777 0.000000 0.333333 0.666667 
2.993821 -2.034083 1.355942 0.099777 0.995010 -0.000000 0.333333 0.333333 
3.670866 -2.101975 1.355942 0.099777 0.995010 -0.000000 0.333333 0.666667 
3.670866 -2.101975 1.316767 0.099777 0.995010 -0.000000 0.333333 0.666667 
2.993821 -2.034083 1.316767 0.099777 0.995010 0.000000 0.333333 0.333333 
3.824221 -0.572671 1.355942 -0.099777 -0.995010 0.000000 0.666667 0.666667 
3.147176 -0.504779 1.355942 -0.099777 -0.995010 0.000000 0.666667 0.333333 
3.147176 -0.504779 1.316767 -0.099777 -0.995010 0.000000 0.666667 0.333333 
3.824221 -0.572671 1.316767 -0.099777 -0.995010 -0.000000 0.666667 0.666667 
3.147176 -0.504779 1.355942 0.995010 -0.099777 0.000000 0.666667 0.333333 
2.993821 -2.034083 1.355942 0.995010 -0.099777 0.000000 0.333333 0.333333 
2.993821 -2.034083 1.316767 0.995010 -0.099777 0.000000 0.333333 0.333333 
3.147176 -0.504779 1.316767 0.995010 -0.099777 0.000000 0.666667 0.333333 
3.833901 -0.476139 1.283000 -0.995010 0.099773 0.000000 0.333333 0.666667 
3.833901 -0.476139 0.785006 -0.995010 0.099773 0.000000 0.666667 0.666667 
3.829992 -0.515118 0.785006 -0.995010 0.099773 0.000000 0.666667 0.666667 
3.829992 -0.515118 0.785006 -0.995009 0.099785 -0.000001 0.666667 0.666667 
3.829992 -0.515118 1.283000 -0.995009 0.099785 -0.000001 0.333333 0.666667 
3.833901 -0.476139 1.283000 -0.995009 0.099785 -0.000001 0.333333 0.666667 
3.156856 -0.408246 1.283000 0.000000 0.000000 -1.000000 0.333333 0.333333 
3.833901 -0.476139 1.283000 0.000000 0.000000 -1.000000 0.333333 0.666667 
3.829992 -0.515118 1.283000 0.000000 0.000000 -1.000000 0.333333 0.666667 
3.829992 -0.515118 1.283000 0.000000 0.000003 -1.000000 0.333333 0.666667 
3.152947 -0.447226 1.283000 0.000000 0.000003 -1.000000 0.333333 0.333333 
3.156856 -0.408246 1.283000 0.000000 0.000003 -1.000000 0.333333 0.333333 
3.833901 -0.476139 0.785006 -0.000000 0.000002 1.000000 0.666667 0.666667 
3.156856 -0.408246 0.785005 -0.000000 0.000002 1.000000 0.666667 0.333333 
3.152947 -0.447226 0.785005 -0.000000 0.000002 1.000000 0.666667 0.333333 
3.152947 -0.447226 0.785005 -0.000000 0.000000 1.000000 0.666667 0.333333 
3.829992 -0.515118 0.785006 -0.000000 0.000000 1.000000 0.666667 0.666667 
3.833901 -0.476139 0.785006 -0.000000 0.000000 1.000000 0.666667 0.666667 
3.156856 -0.408246 0.785005 0.995010 -0.099773 0.000000 0.666667 0.333333 
3.156856 -0.408246 1.283000 0.995010 -0.099773 0.000000 0.333333 0.333333 
3.152947 -0.447226 1.283000 0.995010 -0.099773 0.000000 0.333333 0.333333 
3.152947 -0.447226 0.785005 0.995010 -0.099773 0.000000 0.666667 0.333333 
3.661186 -2.198508 0.785006 -0.995009 0.099786 0.000000 0.333333 0.666667 
3.661186 -2.198508 1.283000 -0.995009 0.099786 0.000000 0.666667 0.666667 
3.665095 -2.159528 1.283000 -0.995009 0.099786 0.000000 0.666667 0.666667 
3.665095 -2.159528 0.785006 -0.995009 0.099786 0.000000 0.333333 0.666667 
2.984142 -2.130615 0.785006 0.000000 0.000000 1.000000 0.333333 0.333333 
3.661186 -2.198508 0.785006 0.000000 0.000000 1.000000 0.333333 0.666667 
3.665095 -2.159528 0.785006 0.000000 0.000000 1.000000 0.333333 0.666667 
2.988050 -2.091636 0.785006 -0.000000 0.000000 1.000000 0.333333 0.333333 
3.661186 -2.198508 1.283000 0.000000 -0.000000 -1.000000 0.666667 0.666667 
2.984141 -2.130615 1.283000 0.000000 -0.000000 -1.000000 0.666667 0.333333 
2.988050 -2.091636 1.283000 0.000000 -0.000000 -1.000000 0.666667 0.333333 
3.665095 -2.159528 1.283000 0.000000 0.000000 -1.000000 0.666667 0.666667 
2.984141 -2.130615 1.283000 0.995010 -0.099774 0.000001 0.666667 0.333333 
2.984142 -2.130615 0.785006 0.995010 -0.099774 0.000001 0.333333 0.333333 
2.988050 -2.091636 0.785006 0.995010 -0.099774 0.000001 0.333333 0.333333 
2.988050 -2.091636 0.785006 0.995009 -0.099786 0.000000 0.333333 0.333333 
2.988050 -2.091636 1.283000 0.995009 -0.099786 0.000000 0.666667 0.333333 
2.984141 -2.130615 1.283000 0.995009 -0.099786 0.000000 0.666667 0.333333 
3.770949 -2.112011 0.785006 0.000000 0.000000 1.000000 0.333333 0.666667 
3.924304 -0.582707 0.785006 0.000000 0.000000 1.000000 0.666667 0.666667 
3.885324 -0.578799 0.785006 0.000000 0.000000 1.000000 0.666667 0.666667 
3.731970 -2.108102 0.785006 0.000000 -0.000000 1.000000 0.333333 0.666667 
3.924304 -0.582707 0.785006 -0.099779 -0.995010 -0.000000 0.666667 0.666667 
3.924304 -0.582707 1.283000 -0.099779 -0.995010 -0.000000 0.666667 0.333333 
3.885324 -0.578799 1.283000 -0.099779 -0.995010 -0.000000 0.666667 0.333333 
3.885324 -0.578799 0.785006 -0.099779 -0.995010 0.000000 0.666667 0.666667 
3.924304 -0.582707 1.283000 0.000003 -0.000000 -1.000000 0.666667 0.333333 
3.770949 -2.112011 1.283000 0.000003 -0.000000 -1.000000 0.333333 0.333333 
3.731969 -2.108102 1.283000 0.000003 -0.000000 -1.000000 0.333333 0.333333 
3.731969 -2.108102 1.283000 -0.000000 0.000000 -1.000000 0.333333 0.333333 
3.885324 -0.578799 1.283000 -0.000000 0.000000 -1.000000 0.666667 0.333333 
3.924304 -0.582707 1.283000 -0.000000 0.000000 -1.000000 0.666667 0.333333 
3.770949 -2.112011 1.283000 0.099780 0.995009 -0.000000 0.333333 0.333333 
3.770949 -2.112011 0.785006 0.099780 0.995009 -0.000000 0.333333 0.666667 
3.731970 -2.108102 0.785006 0.099780 0.995009 -0.000000 0.333333 0.666667 
3.731970 -2.108102 0.785006 0.099779 0.995010 0.000000 0.333333 0.666667 
3.731969 -2.108102 1.283000 0.099779 0.995010 0.000000 0.333333 0.333333 
3.770949 -2.112011 1.283000 0.099779 0.995010 0.000000 0.333333 0.333333 
3.824221 -0.572671 0.712064 -0.995010 0.099777 0.000000 0.333333 0.666667 
3.670866 -2.101975 0.712064 -0.995010 0.099777 0.000000 0.666667 0.666667 
3.670866 -2.101975 0.751239 -0.995010 0.099777 0.000000 0.666667 0.666667 
3.824221 -0.572671 0.751239 -0.995010 0.099777 0.000000 0.333333 0.666667 
3.147176 -0.504779 0.712064 -0.099777 -0.995010 -0.000000 0.333333 0.333333 
3.824221 -0.572671 0.712064 -0.099777 -0.995010 -0.000000 0.333333 0.666667 
3.824221 -0.572671 0.751239 -0.099777 -0.995010 -0.000000 0.333333 0.666667 
3.147176 -0.504779 0.751239 -0.099777 -0.995010 0.000000 0.333333 0.333333 
3.670866 -2.101975 0.712064 0.099777 0.995010 0.000000 0.666667 0.666667 
2.993822 -2.034083 0.712064 0.099777 0.995010 0.000000 0.666667 0.333333 
2.993822 -2.034083 0.751239 0.099777 0.995010 0.000000 0.666667 0.333333 
3.670866 -2.101975 0.751239 0.099777 0.995010 -0.000000 0.666667 0.666667 
2.993822 -2.034083 0.712064 0.995010 -0.099777 0.000000 0.666667 0.333333 
3.147176 -0.504779 0.712064 0.995010 -0.099777 0.000000 0.333333 0.333333 
3.147176 -0.504779 0.751239 0.995010 -0.099777 0.000000 0.333333 0.333333 
2.993822 -2.034083 0.751239 0.995010 -0.099777 0.000000 0.666667 0.333333 
3 0 1 2 
3 3 4 5 
3 6 7 8 
3 9 10 11 
3 12 13 14 
3 14 15 12 
3 16 17 18 
3 19 20 21 
3 22 23 24 
3 25 26 27 
3 28 29 30 
3 31 32 33 
3 34 35 36 
3 37 38 39 
3 40 41 42 
3 43 44 45 
3 46 47 48 
3 49 50 51 
3 52 53 54 
3 55 56 57 
3 58 59 60 
3 61 62 63 
3 64 65 66 
3 67 60 59 
3 68 69 70 
3 71 72 73 
3 74 75 76 
3 77 78 79 
3 80 81 82 
3 83 84 85 
3 86 87 88 
3 89 90 91 
3 92 93 94 
3 94 95 96 
3 97 98 99 
3 100 101 102 
3 103 104 105 
3 106 107 108 
3 109 110 111 
3 112 113 114 
3 115 116 117 
3 118 119 120 
3 121 122 123 
3 124 118 125 
3 126 127 128 
3 129 130 131 
3 132 128 133 
3 134 135 136 
3 137 138 139 
3 140 141 142 
3 143 144 145 
3 146 147 148 
3 149 150 151 
3 151 152 153 
3 154 155 156 
3 157 158 159 
3 160 161 162 
3 163 164 165 
3 166 167 168 
3 169 170 171 
3 172 173 174 
3 175 176 177 
3 178 179 180 
3 181 175 182 
3 183 184 185 
3 186 187 188 
3 189 190 191 
3 192 193 194 
3 195 196 197 
3 198 199 200 
3 201 202 203 
3 204 205 206 
3 207 208 209 
3 209 210 211 
3 212 213 214 
3 215 216 217 
3 218 219 220 
3 221 222 223 
3 224 225 226 
3 227 228 229 
3 230 231 232 
3 232 233 230 
3 234 235 236 
3 236 237 234 
3 237 236 238 
3 238 239 237 
3 240 241 242 
3 243 232 231 
3 244 245 246 
3 247 248 249 
3 236 250 251 
3 251 238 236 
3 252 253 254 
3 254 255 252 
3 255 254 256 
3 256 250 255 
3 250 256 257 
3 257 251 250 
3 258 259 260 
3 260 261 258 
3 259 262 263 
3 263 260 259 
3 262 264 265 
3 265 263 262 
3 261 260 266 
3 266 267 261 
3 268 269 270 
3 270 271 268 
3 263 265 272 
3 272 273 263 
3 267 266 274 
3 274 275 267 
3 266 273 276 
3 276 274 266 
3 273 272 277 
3 277 276 273 
3 278 279 280 
3 280 281 282 
3 283 284 285 
3 285 280 286 
3 287 288 289 
3 289 285 290 
3 281 280 291 
3 291 292 281 
3 293 294 295 
3 295 296 293 
3 285 289 297 
3 297 298 285 
3 292 291 299 
3 300 301 292 
3 291 298 302 
3 303 304 291 
3 298 297 305 
3 306 307 298 
3 308 309 310 
3 310 311 308 
3 312 313 314 
3 314 310 315 
3 316 317 318 
3 318 314 319 
3 320 321 322 
3 322 323 324 
3 325 326 327 
3 327 328 325 
3 329 330 331 
3 331 332 329 
3 333 334 335 
3 336 337 338 
3 334 339 340 
3 341 342 334 
3 339 343 344 
3 344 345 339 
3 346 347 348 
3 348 349 350 
3 351 352 353 
3 353 348 354 
3 355 356 357 
3 357 353 358 
3 359 348 360 
3 360 361 362 
3 363 364 365 
3 365 366 363 
3 353 357 367 
3 367 368 353 
3 369 360 370 
3 371 372 373 
3 360 368 374 
3 375 376 360 
3 368 367 377 
3 378 379 368 
3 380 381 382 
3 382 383 384 
3 385 386 387 
3 388 382 389 
3 390 391 392 
3 393 387 394 
3 395 396 397 
3 397 398 399 
3 400 401 402 
3 402 403 400 
3 387 404 405 
3 406 407 408 
3 409 410 411 
3 412 413 414 
3 410 415 416 
3 417 418 410 
3 407 419 420 
3 421 422 415 
3 423 424 425 
3 425 426 423 
3 427 428 429 
3 429 430 427 
3 431 432 433 
3 433 434 431 
3 435 436 437 
3 437 438 435 
3 439 440 441 
3 441 442 439 
3 443 444 445 
3 445 446 443 
3 447 448 449 
3 449 450 447 
3 451 452 453 
3 453 454 451 
3 455 456 457 
3 458 459 460 
3 461 462 463 
3 464 465 466 
3 467 468 469 
3 470 471 472 
3 473 474 475 
3 475 476 473 
3 477 478 479 
3 479 480 477 
3 481 482 483 
3 483 484 481 
3 485 486 487 
3 487 488 485 
3 489 490 491 
3 492 493 494 
3 495 496 497 
3 497 498 495 
3 499 500 501 
3 501 502 499 
3 503 504 505 
3 506 507 508 
3 509 510 511 
3 512 513 514 
3 515 516 517 
3 517 518 515 
3 519 520 521 
3 521 522 519 
3 523 524 525 
3 525 526 523 
3 527 528 529 
3 529 530 527 
